<?xml version="1.0" encoding="UTF-8"?>
<svg xmlns="http://www.w3.org/2000/svg" viewBox="0 0 32 32">
  <defs>
    <style>
      .cls-1 {
        fill: #fff;
      }
    </style>
  </defs>
  <g id="_Слой_2" data-name="Слой 2">
    <rect class="cls-1" width="32" height="31.98" rx="3.58" ry="3.58"/>
  </g>
  <g id="_Слой_1" data-name="Слой 1">
    <path d="M29.06,5.61l-2.12,2.51c-.52.36-3.21,3.78-3.49,3.78h-1.48c-.04.18.07.17.15.25.24.25.59.41.83.69,1.12,1.3,1.48,3.43,1.35,5.12-.15,1.83-1.36,4.52-3.12,5.23-1.29.52-2.68.91-4.02,1.37-.77.26-1.62.15-2.29-.29h0s-2.43,3.26-2.43,3.26v-14.24c0-.38,1.54-.4,1.84-.67l.22.22.63-.76c-.31-.02-.63.02-.94,0-.13,0-.26.07-.22-.13.5-.31.76-.86,1.13-1.29,1.11-1.31,2.31-2.63,3.45-3.92.33-.38.58-.87,1.03-1.12h9.48ZM21.55,13.84c-1.95-2-4.72-1.21-5.89,1.14-.85,1.7-.98,3.25-.23,5.03.38.9.79,1.61,1.66,2.12,2.99,1.76,5.62-1.62,5.78-4.34.07-1.11-.25-2.45-.83-3.39-.18-.3-.28-.34-.49-.55Z"/>
    <path d="M31.61,26.66c.32.23.24.73-.13.85l-.78.26c-2.94.81-5.91,2.05-8.85,2.92-.42.12-.84.27-1.28.34-.96-.78-1.86-1.69-2.79-2.52s-1.9-1.57-2.79-2.42c-.08-.08-.31-.45-.31-.45h0c1.78-.54,0,0,0,0,.79-.35,7.71-2.88,8.85-2.78,1.41.12,5.5,2.28,6.91,3.06.47.26.81.48,1.17.74Z"/>
    <path d="M13.35,9.81l-1.39.63c-.11.05-.37.22-.47.29-3.03,2.06-3.97,5.67-3.03,9.22.19.72.47,1.2.83,1.82-.13.03-2.37-.89-2.69-1.03-1.1-.48-2.54-1.07-3.57-1.64C.45,17.66-.53,14.46.74,11.84c.63-1.31,2.1-2.63,3.54-3v4.98c-1.15.46-1.29,1.53-.1,2.01.08.65-.26,1.9.36,2.31.12.08,1.74.76,1.84.77.59.04.79-.32.85-.85.14-1.31.11-3.36-.36-4.58v-5.08c2.26,0,4.32.81,6.49,1.42Z"/>
    <path d="M17.96,2.92c-.09-.44-.57-.63-.98-.63,0,0-3.71.06-5.36.12-1.55.06-3.23.07-4.71.24-.9.1-.54,1.22-.58,1.94h0c0,1.81-.01,7.03,0,8.84-.61-.2-1.31-.47-1.81-.87-.02-2.18.14-4.37.11-6.55,0,0,0,.26,0,0,0-.38-.02-1.92-.03-2.73,0-.46.23-.9.62-1.15,0,0,0,0,0,0,1.07-.7,5.15-.63,5.15-.63h0s7.11-.24,8.09.21c1.23.57.72,3.4.72,3.4l-1.17,1.61c-.04-.99.12-2.91-.06-3.8Z"/>
    <path d="M14.86,10.02l-1.77,2.09c-.08.17.04.45-.06.61-.1.15-1.39.07-1.63.98l-.06,8.12v.29s-.74.47-.74.47c-.62-.49-.94-1.07-1.25-1.78-1.47-3.29-.56-7.36,2.39-9.56.87-.65,2.1-1.32,3.14-1.22Z"/>
    <path d="M6.69,18.32c-.13.4-1.85-.38-2.07-.63s-.03-1.35-.09-1.75c1.48-.03,1.45-2.1,0-2.07v-.81c.34-.04,1.55.66,1.83.82.5.29.45,4.02.33,4.43Z"/>
    <path d="M11.16,22.95l-.56-.38.74-.76-.05,1.06c0,.06-.06.11-.12.08Z"/>
    <path d="M24.42,12.54c.37-.08,1.79.45,2.27.57,1.27.32,3.1.59,4.36.94.29.13.32.37.34.65.09.97.09,2.9,0,3.87s-.42.72-1.05,1.01c-1.3.59-4.09,1.81-5.37,2.14-1.58.4-.81-1.15-.64-1.89.32-1.42.44-2.79.16-4.25-.14-.76-1.26-2.77-.07-3.03Z"/>
  </g>
</svg>